<svg id="SvgjsSvg1000" xmlns="http://www.w3.org/2000/svg" version="1.1" xmlns:xlink="http://www.w3.org/1999/xlink" xmlns:svgjs="http://svgjs.com/svgjs" width="37" height="40" viewBox="0 0 37 40"><title>book</title><desc>Created with Avocode.</desc><defs id="SvgjsDefs1001"></defs><path id="SvgjsPath1007" d="M321.875 18.0989L293.687 18.0989C290.857 18.0989 288.562 20.3209 288.562 23.0618L288.562 52.8382C288.562 55.579 290.857 57.801 293.687 57.801L321.875 57.801C323.29 57.801 324.437 56.6901 324.437 55.319500000000005L324.437 20.58030000000001C324.437 19.209900000000008 323.29 18.098900000000008 321.875 18.098900000000008ZM319.312 41.7497C319.312 42.4347 318.73900000000003 42.990399999999994 318.031 42.990399999999994L300.094 42.990399999999994C299.38599999999997 42.990399999999994 298.812 42.43469999999999 298.812 41.7497L298.812 24.3025C298.812 23.6174 299.386 23.061799999999998 300.094 23.061799999999998L318.031 23.061799999999998C318.73900000000003 23.061799999999998 319.312 23.617399999999996 319.312 24.3025ZM319.312 51.5976C319.312 52.2826 318.73900000000003 52.8382 318.031 52.8382L296.224 52.8382C294.823 52.8382 293.687 51.7384 293.687 50.3816L293.687 50.3322C293.687 48.9754 294.82300000000004 47.8755 296.224 47.8755L318.031 47.8755C318.73900000000003 47.8755 319.312 48.4309 319.312 49.1162ZM312.906 28.0245L305.219 28.0245C304.51099999999997 28.0245 303.938 28.58 303.938 29.2652L303.938 31.7467C303.938 32.4317 304.51099999999997 32.9874 305.219 32.9874L312.906 32.9874C313.61400000000003 32.9874 314.187 32.4317 314.187 31.7467L314.187 29.2652C314.187 28.58 313.61400000000003 28.0245 312.906 28.0245Z " fill="#f7c35a" fill-opacity="1" transform="matrix(1,0,0,1,-288,-18)"></path></svg>